<?xml version="1.0" encoding="utf-8"?>
<svg viewBox="0 0 500 500" xmlns="http://www.w3.org/2000/svg" xmlns:bx="https://boxy-svg.com">
  <text style="white-space: pre; fill: rgb(51, 51, 51); font-family: Arial, sans-serif; font-size: 24.1px;" x="-233.779" y="52.586" transform="matrix(-1, 0, 0, 1, 0, 0)"> </text>
  <path d="M -367.361 124.138 L -312.227 337.068 L -413.951 337.068 L -367.361 124.138 Z" style="stroke: rgb(0, 0, 0); fill-opacity: 0; fill: rgb(27, 0, 0);" transform="matrix(-1, 0, 0, 1, 0, 0)" bx:shape="triangle -413.951 124.138 101.724 212.93 0.458 0 1@7b51db94"/>
  <path style="stroke: rgb(0, 0, 0); fill: rgb(27, 0, 0);" d="M 313.019 378.795 C 316.815 314.261 416.966 327.213 413.881 379.657" transform="matrix(-1, 0, 0, -1, 726.969849, 714.864288)"/>
  <text style="white-space: pre; fill: rgb(51, 51, 51); font-family: Arial, sans-serif; font-size: 24.1px;" x="248.104" y="52.343"> </text>
  <line style="fill: rgb(216, 216, 216); stroke: rgb(0, 0, 0);" x1="236.366" y1="406.034" x2="241.538" y2="37.069" transform="matrix(-1, 0, 0, -1, 477.903992, 443.102997)"/>
  <path d="M -236.797 393.103 L -150.159 452.586 L -323.435 452.586 L -236.797 393.103 Z" style="stroke: rgb(0, 0, 0);" transform="matrix(-1, 0, 0, 1, 0, 0)" bx:shape="triangle -323.435 393.103 173.276 59.483 0.5 0 1@0cb4e483"/>
  <text style="white-space: pre; fill: rgb(51, 51, 51); font-family: Arial, sans-serif; font-size: 14.3px;" x="-405.993" y="330.623" transform="matrix(-1, 0, 0, 1, 0, 0)">­Ъце</text>
  <text style="white-space: pre; fill: rgb(51, 51, 51); font-family: Arial, sans-serif; font-size: 14.3px;" x="-406.504" y="314.755" transform="matrix(-1, 0, 0, 1, 0, 0)">­Ъњі</text>
  <text style="white-space: pre; fill: rgb(51, 51, 51); font-family: Arial, sans-serif; font-size: 14.3px;" x="-389.614" y="329.761" transform="matrix(-1, 0, 0, 1, 0, 0)">­Ъце</text>
  <text style="white-space: pre; fill: rgb(51, 51, 51); font-family: Arial, sans-serif; font-size: 14.3px;" x="-390.125" y="313.892" transform="matrix(-1, 0, 0, 1, 0, 0)">­Ъњі</text>
  <text style="white-space: pre; fill: rgb(51, 51, 51); font-family: Arial, sans-serif; font-size: 14.3px;" x="-373.234" y="329.761" transform="matrix(-1, 0, 0, 1, 0, 0)">­Ъце</text>
  <text style="white-space: pre; fill: rgb(51, 51, 51); font-family: Arial, sans-serif; font-size: 14.3px;" x="-373.745" y="313.892" transform="matrix(-1, 0, 0, 1, 0, 0)">­Ъњі</text>
  <text style="white-space: pre; fill: rgb(51, 51, 51); font-family: Arial, sans-serif; font-size: 24.1px;" x="248.966" y="53.043"> </text>
  <path d="M 114.246 18.009 L 169.38 230.939 L 67.656 230.939 L 114.246 18.009 Z" style="stroke: rgb(0, 0, 0); fill-opacity: 0; fill: rgb(27, 0, 0);" bx:shape="triangle 67.656 18.009 101.724 212.93 0.458 0 1@9890c11a"/>
  <path style="stroke: rgb(0, 0, 0); fill: rgb(27, 0, 0);" d="M 67.242 230.94 C 71.038 295.474 171.189 282.522 168.104 230.078"/>
  <text style="white-space: pre; fill: rgb(51, 51, 51); font-family: Arial, sans-serif; font-size: 24.1px;" x="-234.641" y="52.8" transform="matrix(-1, 0, 0, 1, 0, 0)"> </text>
  <path style="fill: rgb(216, 216, 216); stroke: rgb(0, 0, 0);" d="M 102.557 71.409 L 378.793 70.641" transform="matrix(-0.918802, -0.394718, 0.394718, -0.918802, 433.772876, 231.281706)"/>
  <text style="white-space: pre; fill: rgb(51, 51, 51); font-family: Arial, sans-serif; font-size: 14.3px;" x="-124.474" y="221.631" transform="matrix(-1, 0, 0, 1, 0, 0)">­Ъцб</text>
  <text style="white-space: pre; fill: rgb(51, 51, 51); font-family: Arial, sans-serif; font-size: 14.3px;" x="-124.985" y="205.762" transform="matrix(-1, 0, 0, 1, 0, 0)">­Ъњі</text>
  <text style="white-space: pre; fill: rgb(51, 51, 51); font-family: Arial, sans-serif; font-size: 14.3px;" x="-356.299" y="329.511" transform="matrix(-1, 0, 0, 1, 0, 0)">­Ъце</text>
  <text style="white-space: pre; fill: rgb(51, 51, 51); font-family: Arial, sans-serif; font-size: 14.3px;" x="-356.809" y="313.643" transform="matrix(-1, 0, 0, 1, 0, 0)">­Ъњі</text>
  <text style="white-space: pre; fill: rgb(51, 51, 51); font-family: Arial, sans-serif; font-size: 14.3px;" x="-339.92" y="328.649" transform="matrix(-1, 0, 0, 1, 0, 0)">­Ъце</text>
  <text style="white-space: pre; fill: rgb(51, 51, 51); font-family: Arial, sans-serif; font-size: 14.3px;" x="-340.431" y="312.78" transform="matrix(-1, 0, 0, 1, 0, 0)">­Ъњі</text>
</svg>